<?xml version="1.0" encoding="UTF-8" standalone="no"?>
<svg
   xmlns:dc="http://purl.org/dc/elements/1.1/"
   xmlns:cc="http://creativecommons.org/ns#"
   xmlns:rdf="http://www.w3.org/1999/02/22-rdf-syntax-ns#"
   xmlns:svg="http://www.w3.org/2000/svg"
   xmlns="http://www.w3.org/2000/svg"
   xmlns:sodipodi="http://sodipodi.sourceforge.net/DTD/sodipodi-0.dtd"
   xmlns:inkscape="http://www.inkscape.org/namespaces/inkscape"
   inkscape:export-ydpi="96"
   inkscape:export-xdpi="96"
   inkscape:export-filename="/home/sparanzza/snap/inkscape/7627/Desktop/valhollrt/brand/logo/avatar.png"
   sodipodi:docname="simbolo.svg"
   inkscape:version="1.0 (6e3e5246a0, 2020-05-07)"
   id="svg910"
   version="1.1"
   viewBox="0 0 135.46666 135.46667"
   height="512"
   width="512">
  <defs
     id="defs904" />
  <sodipodi:namedview
     inkscape:window-maximized="1"
     inkscape:window-y="1470"
     inkscape:window-x="246"
     inkscape:window-height="1017"
     inkscape:window-width="1920"
     units="px"
     showgrid="false"
     inkscape:document-rotation="0"
     inkscape:current-layer="layer1"
     inkscape:document-units="mm"
     inkscape:cy="309.59255"
     inkscape:cx="298.36138"
     inkscape:zoom="0.98994949"
     inkscape:pageshadow="2"
     inkscape:pageopacity="0.0"
     borderopacity="1.0"
     bordercolor="#666666"
     pagecolor="#ffffff"
     id="base" />
  <metadata
     id="metadata907">
    <rdf:RDF>
      <cc:Work
         rdf:about="">
        <dc:format>image/svg+xml</dc:format>
        <dc:type
           rdf:resource="http://purl.org/dc/dcmitype/StillImage" />
        <dc:title></dc:title>
      </cc:Work>
    </rdf:RDF>
  </metadata>
  <g
     style="display:inline"
     inkscape:label="Layer 2"
     id="layer2"
     inkscape:groupmode="layer">
    <g
       inkscape:label="Layer 3"
       id="layer3"
       inkscape:groupmode="layer" />
  </g>
  <g
     id="layer1"
     inkscape:groupmode="layer"
     inkscape:label="Layer 1">
    <g
       style="display:inline"
       transform="matrix(0.05849002,0,0,-0.05849002,-125.93779,248.61801)"
       id="g20">
      <g
         transform="matrix(0.61718557,0,0,0.61718557,2194.3241,1259.8409)"
         id="g1862">
        <path
           sodipodi:nodetypes="cccccccccccccccccccccccccccccc"
           transform="matrix(9.3794362,0,0,-9.3794362,-614.59317,5429.6592)"
           d="m 113.92969,103.89453 c 10.66509,18.32814 21.61101,37.5222 33.74219,58.43555 l 56.54882,0.3125 -34.13086,-58.74805 z m 233.5039,0 -28.19336,48.82617 h 0.16797 l -53.88672,93.03125 28.40235,49.10547 110.20898,-190.96289 z M 73.244141,173.82812 218.58594,425.25391 c 0,0 34.07384,-58.87176 33.86133,-58.53516 0,0 -27.79884,-49.00912 -28.39454,-48.93359 l -5.83203,8.97851 C 199.76384,294.788 178.66275,258.21895 158.13672,222.69141 c 21.91035,0.11545 56.51033,0.12402 81.03906,0.12109 l -28.51953,-49.0918 c -46.03438,-0.0307 -96.39056,0.0347 -137.412109,0.10742 z m 371.433589,-0.004 c -22.52306,0.0534 -45.32069,0.1067 -67.84375,0.16016 -8.67078,14.99206 -18.67005,32.12179 -28.1289,48.82617 4.00519,-0.0721 7.26554,-0.15572 11.19922,-0.17774 -18.19769,32.32503 -40.30714,68.68415 -60.43555,104.74805 -16.00573,-29.57112 -35.78592,-61.37501 -53.70508,-93.22852 -18.81742,0.10501 -37.6357,0.20945 -56.45312,0.31446 34.90767,60.47742 110.02929,190.68359 110.02929,190.68359 z"
           style="fill:#ffbc00;fill-opacity:1;stroke-width:0.315009"
           id="path1866" />
      </g>
    </g>
  </g>
</svg>
